<svg width="239" height="307" viewBox="0 0 239 307" fill="none" xmlns="http://www.w3.org/2000/svg">
<path fill-rule="evenodd" clip-rule="evenodd" d="M85 6.493V12.986L154.25 13.243L223.5 13.5L223.756 98.25L224.011 183H230.506H237V102.156C237 57.691 237.293 16.516 237.652 10.656L238.304 0H161.652H85V6.493ZM59 155V236H75H91V207.599V179.198L94.192 182.179C107.58 194.685 133.321 194.668 152.646 182.139C187.742 159.385 188.721 108.882 154.539 84.49C145.058 77.725 136.538 74.833 124.347 74.24C111.207 73.601 102.617 75.945 95.665 82.064L91 86.17V80.085V74H75H59V155ZM133.307 106.014C143.009 110.575 149.005 119.39 149.783 130.237C150.726 143.376 145.278 153.206 133.904 158.89C119.023 166.326 102.035 160.678 94.399 145.754C86.257 129.843 94.059 110.969 111.332 104.788C117.768 102.485 126.88 102.993 133.307 106.014ZM1 209V293H7.5H14V209V125H7.5H1V209ZM0 300.5V307H76H152V300.5V294H76H0V300.5Z" fill="#FF3131"/>
</svg>
