<?xml version="1.0" standalone="no"?>
<!DOCTYPE svg PUBLIC "-//W3C//DTD SVG 20010904//EN" "http://www.w3.org/TR/2001/REC-SVG-20010904/DTD/svg10.dtd">
<svg version="1.0" xmlns="http://www.w3.org/2000/svg" width="500.000000pt" height="500.000000pt"
	viewBox="0 0 500.000000 500.000000" preserveAspectRatio="xMidYMid meet">

	<g transform="translate(0.000000,500.000000) scale(0.100000,-0.100000)" fill="#ffffff" stroke="none">
		<path d="M2160 3820 l0 -70 695 0 695 0 0 -845 0 -845 70 0 70 0 0 915 0 915
-765 0 -765 0 0 -70z" />
		<path d="M1900 2340 l0 -810 160 0 160 0 0 280 0 280 51 -40 c67 -53 141 -74
254 -74 155 1 279 51 395 160 79 75 128 149 161 244 18 52 22 88 23 175 1 182
-47 298 -175 426 -125 127 -258 176 -443 167 -106 -6 -178 -33 -233 -88 l-33
-32 0 61 0 61 -160 0 -160 0 0 -810z m741 488 c62 -26 132 -102 153 -165 50
-146 -11 -292 -154 -369 -27 -15 -56 -19 -125 -19 -80 0 -95 3 -135 27 -125
74 -184 211 -146 339 51 178 234 262 407 187z" />
		<path d="M1310 1730 l0 -910 760 0 760 0 0 70 0 70 -690 0 -690 0 0 840 0 840
-70 0 -70 0 0 -910z" />
	</g>
</svg>